<svg version="1.1" id="_0010_presentation" xmlns="http://www.w3.org/2000/svg" xmlns:xlink="http://www.w3.org/1999/xlink" x="0px" y="0px" viewBox="0 0 500 500" style="width: 153px;" xml:space="preserve" data-imageid="presentation-3-28" imageName="Presentation 3" class="illustrations_image">
<style type="text/css">
	.st0_presentation-3-28{fill:#D1D3D4;}
	.st1_presentation-3-28{fill:#231F20;}
	.st2_presentation-3-28{fill:#FFFFFF;}
	.st3_presentation-3-28{fill:#68E1FD;}
</style>
<path id="floor_presentation-3-28" class="st0_presentation-3-28" d="M474.1,377H21.7c-0.4,0-0.8-0.3-0.8-0.8s0.3-0.8,0.8-0.8h452.4c0.4,0,0.8,0.3,0.8,0.8&#10;&#9;S474.5,377,474.1,377z"/>
<g id="board_presentation-3-28">
	<polyline class="st1_presentation-3-28" points="319.3,295.8 334,403.1 339.5,403.8 328,294.7 315.5,295.8 &#9;"/>
	<path class="st1_presentation-3-28" d="M339.5,404.5h-0.1l-5.4-0.7c-0.3,0-0.6-0.3-0.6-0.6l-14.6-106.9l-3,0.3c-0.4,0-0.8-0.3-0.8-0.7c0,0,0,0,0,0&#10;&#9;&#9;c0-0.4,0.3-0.8,0.7-0.8c0,0,0,0,0,0L328,294c0.4,0,0.8,0.3,0.8,0.7l11.4,109c0,0.2-0.1,0.5-0.2,0.6&#10;&#9;&#9;C339.8,404.5,339.7,404.5,339.5,404.5z M334.7,402.4l3.9,0.5l-11.2-107.4l-7.2,0.6L334.7,402.4z"/>
	<polygon class="st2_presentation-3-28" points="253.7,76.3 408.8,76.3 393.9,307.1 238.8,307.1 &#9;"/>
	<path class="st1_presentation-3-28" d="M393.9,307.9H238.8c-0.2,0-0.4-0.1-0.5-0.2c-0.1-0.2-0.2-0.4-0.2-0.6L253,76.3c0-0.4,0.3-0.7,0.7-0.7h155.1&#10;&#9;&#9;c0.2,0,0.4,0.1,0.5,0.2c0.1,0.2,0.2,0.4,0.2,0.6l-14.9,230.8C394.6,307.5,394.3,307.9,393.9,307.9z M239.6,306.4h153.6L408,77.1&#10;&#9;&#9;H254.4L239.6,306.4z"/>
	<polygon class="st2_presentation-3-28" points="261.6,83.3 400.1,83.3 386.1,300.1 247.6,300.1 &#9;"/>
	<path class="st0_presentation-3-28" d="M386.1,300.8H247.6c-0.2,0-0.4-0.1-0.5-0.2c-0.1-0.1-0.2-0.4-0.2-0.6l14-216.8c0-0.4,0.4-0.7,0.8-0.7h138.5&#10;&#9;&#9;c0.2,0,0.4,0.1,0.5,0.2c0.1,0.1,0.2,0.4,0.2,0.6l-14,216.8C386.8,300.5,386.5,300.8,386.1,300.8z M248.3,299.3h137l13.9-215.2h-137&#10;&#9;&#9;L248.3,299.3z"/>
	<path class="st2_presentation-3-28" d="M256.3,65.4h151.4c2.3,0,4.3,1.8,4.3,4.2c0,0.1,0,0.3,0,0.4l-0.4,6.2H251l0.4-6.2&#10;&#9;&#9;C251.6,67.4,253.7,65.5,256.3,65.4z"/>
	<path class="st1_presentation-3-28" d="M411.6,77H251c-0.2,0-0.4-0.1-0.6-0.2c-0.1-0.2-0.2-0.4-0.2-0.6l0.4-6.2c0.2-3,2.7-5.2,5.6-5.3h151.4&#10;&#9;&#9;c2.8,0,5,2.2,5.1,4.9c0,0.2,0,0.3,0,0.5l-0.4,6.2C412.3,76.7,412,77,411.6,77z M251.8,75.5h159.1l0.4-5.5c0.1-1-0.3-2-0.9-2.7&#10;&#9;&#9;c-0.7-0.7-1.6-1.1-2.6-1.1H256.3c-2.2,0-4,1.7-4.1,3.9L251.8,75.5z"/>
	<polygon class="st2_presentation-3-28" points="251.5,307.1 235.4,437.4 241.3,437.4 262.1,307.1 &#9;"/>
	<path class="st1_presentation-3-28" d="M241.3,438.1h-6c-0.2,0-0.4-0.1-0.6-0.2c-0.1-0.2-0.2-0.4-0.2-0.6l16.1-130.2c0-0.4,0.4-0.7,0.8-0.7h10.6&#10;&#9;&#9;c0.2,0,0.4,0.1,0.6,0.3c0.1,0.2,0.2,0.4,0.2,0.6l-20.7,130.2C242,437.9,241.7,438.1,241.3,438.1z M236.2,436.6h4.5l20.5-128.8h-9.1&#10;&#9;&#9;L236.2,436.6z"/>
	<polygon class="st2_presentation-3-28" points="375.9,307.1 380.9,437.4 374.9,437.4 365.2,307.1 &#9;"/>
	<path class="st1_presentation-3-28" d="M380.8,438.1h-6c-0.4,0-0.7-0.3-0.8-0.7l-9.6-130.2c0-0.2,0.1-0.4,0.2-0.6c0.1-0.2,0.3-0.2,0.5-0.2h10.6&#10;&#9;&#9;c0.4,0,0.7,0.3,0.7,0.7l5,130.2C381.6,437.8,381.3,438.1,380.8,438.1C380.9,438.1,380.9,438.2,380.8,438.1L380.8,438.1z&#10;&#9;&#9; M375.5,436.6h4.5l-4.9-128.8h-9.1L375.5,436.6z"/>
</g>
<g id="character_presentation-3-28">
	<path class="st2_presentation-3-28" d="M131.9,409.5v25.6l12.2,3.5l-0.3-5.2l5.5,5.5c0,0,32.9,5.9,32.7,1.5s-3.5-6.8-7.6-9c-4.5-2.3-16.2-9-16.2-9&#10;&#9;&#9;l-1.7-18.8"/>
	<path class="st1_presentation-3-28" d="M176,442.8c-8.7,0-23.1-2.5-26.8-3.1c-0.1,0-0.3-0.1-0.4-0.2l-4.1-4.1l0.2,3.3c0,0.2-0.1,0.5-0.3,0.6&#10;&#9;&#9;c-0.2,0.2-0.4,0.2-0.7,0.1l-12.2-3.5c-0.3-0.1-0.6-0.4-0.6-0.7v-25.6c0-0.4,0.3-0.8,0.8-0.8s0.8,0.3,0.8,0.8v25.1l10.7,3l-0.2-4.2&#10;&#9;&#9;c0-0.3,0.2-0.6,0.4-0.7c0.3-0.1,0.6-0.1,0.8,0.1l5.4,5.4c11.1,2,29.2,4.3,31.5,2.4c0.1-0.1,0.1-0.1,0.1-0.1c-0.2-3.8-3-6.1-7.2-8.3&#10;&#9;&#9;c-4.4-2.3-16.1-8.9-16.2-9c-0.2-0.1-0.3-0.3-0.4-0.6l-1.8-18.8c0-0.4,0.3-0.8,0.7-0.8c0.4,0,0.7,0.3,0.8,0.6l1.7,18.4&#10;&#9;&#9;c2,1.1,11.9,6.7,15.8,8.8s7.9,4.8,8,9.6c0,0.5-0.2,1-0.6,1.3C181.3,442.5,179,442.8,176,442.8z"/>
	<path class="st2_presentation-3-28" d="M95.8,423.6L95.5,445l14,3.7l0.2-6.1l4.8,7.6c0,0,34.5,7.6,36.3,3s-1.3-11.5-9.8-15.7c-5.6-2.6-11.2-5-17.1-7&#10;&#9;&#9;l-2-9.4"/>
	<path class="st1_presentation-3-28" d="M144.6,455.5c-9.1,0-24.4-3.2-30.2-4.5c-0.2-0.1-0.4-0.2-0.5-0.3l-3.5-5.6l-0.1,3.7c0,0.2-0.1,0.4-0.3,0.6&#10;&#9;&#9;c-0.2,0.1-0.4,0.2-0.6,0.1l-14-3.7c-0.3-0.1-0.6-0.4-0.6-0.7l0.2-21.5c0-0.4,0.3-0.7,0.8-0.7l0,0c0.4,0,0.7,0.3,0.7,0.8&#10;&#9;&#9;c0,0,0,0,0,0l-0.2,20.9l12.5,3.3l0.2-5.2c0-0.4,0.3-0.7,0.7-0.7c0.3,0,0.5,0.1,0.6,0.4l4.6,7.4c16.2,3.6,34.2,5.9,35.1,3.4&#10;&#9;&#9;c1.6-4.3-1.1-10.7-9.5-14.7c-5.5-2.6-11.2-5-17-7c-0.3-0.1-0.4-0.3-0.5-0.5l-2-9.4c-0.1-0.4,0.2-0.8,0.6-0.9&#10;&#9;&#9;c0.4-0.1,0.8,0.2,0.9,0.6l1.9,9c5.7,2,11.3,4.3,16.7,6.9c9.1,4.4,12,11.7,10.2,16.6C151,455,148.3,455.5,144.6,455.5z"/>
	<polygon class="st1_presentation-3-28" points="87.8,267.3 92.8,426.5 131.6,426.7 131.1,417.7 160.7,418.8 167.4,245.5 &#9;"/>
	<path class="st1_presentation-3-28" d="M131.6,427.4L131.6,427.4l-38.8-0.2c-0.4,0-0.7-0.3-0.8-0.7L87,267.3c0-0.3,0.2-0.7,0.6-0.8l79.7-21.8&#10;&#9;&#9;c0.2-0.1,0.5,0,0.7,0.1c0.2,0.1,0.3,0.4,0.3,0.6l-6.8,173.3c0,0.4-0.3,0.7-0.8,0.7l0,0l-28.7-1.1l0.4,8.1&#10;&#9;&#9;C132.4,427.1,132.1,427.4,131.6,427.4C131.6,427.4,131.6,427.4,131.6,427.4L131.6,427.4z M93.6,425.8l37.2,0.1l-0.4-8.2&#10;&#9;&#9;c0-0.2,0.1-0.4,0.2-0.6c0.1-0.1,0.4-0.2,0.6-0.2L160,418l6.7-171.5l-78.1,21.3L93.6,425.8z"/>
	<path class="st2_presentation-3-28" d="M238.1,110.4c0.2-0.4,0.5-0.8,0.9-0.9c0.9-0.2,1.1,1.2,0.9,2.1l-2.3,10.6c3.7-6.4,7.8-12.6,12.4-18.4&#10;&#9;&#9;c0.2-0.3,0.5-0.6,0.9-0.7c0.9,0,0.9,1.4,0.5,2.2c-2.4,5.4-5.4,10.4-9,15l8.5-12.2c0.9-1.4,1.9-2.6,3.2-3.6c0.6,1.3,0.1,2.9-0.6,4.2&#10;&#9;&#9;c-1.7,3.7-3.7,7.2-6,10.6c3.1-5,6.7-9.7,10.7-14c0.6,2.7-0.6,5.5-2.1,7.8s-3.5,4.4-4.6,7c2.3-3.3,4.8-6.4,7.6-9.3&#10;&#9;&#9;c0.4-0.6,1.1-0.9,1.7-0.9c0.7,0.2,1.2,0.9,1.2,1.6c-0.1,0.7-0.3,1.4-0.8,2c-5.9,10.1-13.1,19.3-21.4,27.5c-0.5,0.5-7.4-5.7-8-6.4&#10;&#9;&#9;c-1.7-1.6-2.5-3.8-2.3-6.1C230.4,122.5,235.4,115.8,238.1,110.4z"/>
	<path class="st1_presentation-3-28" d="M240,141.8L240,141.8c-1.5,0-8.4-6.6-8.5-6.7c-2-2.2-2.8-4.3-2.5-6.7c0.5-4.6,3.3-9.4,5.8-13.7&#10;&#9;&#9;c1-1.7,1.9-3.3,2.6-4.8c0.2-0.6,0.8-1.1,1.4-1.3c0.5-0.1,1,0.1,1.3,0.4c0.6,0.8,0.7,1.7,0.5,2.6l-1.3,6.1c3.1-5,6.5-9.9,10.1-14.6&#10;&#9;&#9;c0.3-0.6,0.9-0.9,1.5-1c0.5,0,1,0.2,1.2,0.6c0.4,0.7,0.4,1.5,0.2,2.2c0.4-0.5,0.9-0.9,1.4-1.3c0.3-0.2,0.8-0.2,1,0.2&#10;&#9;&#9;c0,0,0.1,0.1,0.1,0.1c0.5,1.4,0.4,2.9-0.3,4.2c1-1.2,2.1-2.4,3.1-3.5c0.2-0.2,0.5-0.3,0.7-0.2c0.3,0.1,0.5,0.3,0.5,0.6&#10;&#9;&#9;c0.4,1.8,0.2,3.7-0.6,5.4l0.3-0.3c0.6-0.7,1.4-1.1,2.4-1.1c1.1,0.2,1.9,1.2,1.9,2.4c-0.1,0.9-0.4,1.7-0.9,2.4&#10;&#9;&#9;c-5.9,10.2-13.1,19.5-21.5,27.7C240.4,141.7,240.2,141.8,240,141.8z M240.1,140.3L240.1,140.3z M239,110.2c0,0-0.1,0.1-0.3,0.5l0,0&#10;&#9;&#9;c-0.8,1.5-1.7,3.2-2.7,4.9c-2.4,4.2-5.1,8.8-5.6,13.1c-0.2,1.9,0.4,3.6,2.1,5.5c2.3,2.2,4.7,4.2,7.2,6.1c8.2-8,15.2-17.1,21-27.1&#10;&#9;&#9;c0.4-0.5,0.6-1.1,0.7-1.7c0-0.4-0.2-0.8-0.5-0.9s-0.8,0.3-1.1,0.7c-2.8,2.8-5.3,5.9-7.6,9.2c-0.2,0.3-0.7,0.4-1,0.2&#10;&#9;&#9;c-0.4-0.2-0.5-0.6-0.3-1c0,0,0,0,0,0c0.8-1.7,1.9-3.4,3.1-4.9c0.5-0.7,1.1-1.4,1.6-2.2c1.2-1.7,2-3.6,2.1-5.7&#10;&#9;&#9;c-2.8,3.1-5.3,6.4-7.7,9.9c-0.6,1-1.2,1.9-1.8,2.8c-0.2,0.3-0.7,0.4-1,0.2c-0.3-0.2-0.4-0.7-0.2-1c0.6-1,1.2-1.9,1.8-2.8&#10;&#9;&#9;c1.5-2.5,2.9-5.1,4.2-7.7c0.4-0.8,0.7-1.6,0.8-2.5c-0.8,0.8-1.5,1.7-2.1,2.7l-4.1,5.9c-1.3,2.2-2.8,4.3-4.4,6.3&#10;&#9;&#9;c-0.2,0.3-0.7,0.4-1,0.1c-0.3-0.2-0.4-0.7-0.2-1l4.3-6.2c1.7-2.8,3.2-5.7,4.6-8.6c0.2-0.4,0.2-0.8,0.1-1.2c0,0.1-0.1,0.1-0.3,0.4&#10;&#9;&#9;c-4.6,5.8-8.7,11.9-12.4,18.3c-0.2,0.4-0.7,0.5-1,0.3c-0.3-0.2-0.5-0.5-0.4-0.8l2.3-10.6C239.3,111,239.2,110.6,239,110.2z&#10;&#9;&#9; M238,110.4L238,110.4z"/>
	<polygon class="st1_presentation-3-28" points="223.6,131.3 227.2,127 243.6,139.5 238.9,145.7 &#9;"/>
	<path class="st1_presentation-3-28" d="M238.9,146.4c-0.2,0-0.4-0.1-0.5-0.2l-15.3-14.4c-0.3-0.3-0.3-0.7-0.1-1l3.6-4.3c0.3-0.3,0.7-0.3,1-0.1&#10;&#9;&#9;l16.4,12.4c0.3,0.2,0.4,0.7,0.1,1l-4.6,6.2C239.4,146.2,239.2,146.4,238.9,146.4L238.9,146.4z M224.6,131.3l14.2,13.3l3.7-4.9&#10;&#9;&#9;L227.3,128L224.6,131.3z"/>
	<path class="st3_presentation-3-28 targetColor" d="M143.7,132.8l3.8,1.6c13.4,5.8,48.2,23.3,49.8,22.7c1.8-0.7,25.3-28.9,25.3-28.9l20.1,17.1&#10;&#9;&#9;c0,0-25.1,45.8-39,45.2s-51.6-18.9-51.6-18.9" style="fill: rgb(0, 74, 173);"/>
	<path class="st2_presentation-3-28" d="M187.8,198.3c0,0,6.1-2.1,7.4-5.2s4.6-13.4,6.2-13.6s2.5,1.5,1.6,5.1s-1.7,10-1.7,10.1&#10;&#9;&#9;c0.2-1.2,26.7,0.1,29.2,0.2c1.1,0.1,2.5,0.6,2.2,1.6c-0.2,0.6-0.9,0.9-1.6,1c-5.8,1.2-11.7,2-17.7,2.2l12.2,0.1&#10;&#9;&#9;c1.8,0,4,0.2,4.9,1.8c-4.3,0.6-8.6,1-12.9,1.3l12.3,1.1c0.8,0.1,1.9,0.7,1.4,1.4c-4.3,0.6-8.6,1.1-12.9,1.4c3.4,0.3,7,0.6,10.1,2&#10;&#9;&#9;c0.5,0.2,1.1,0.6,1.1,1.1s-0.8,1-1.5,1.1c-3.9,0.7-8.1-0.1-12.1-0.3c-5.1-0.2-10.3-0.4-15.4-0.8c-1.5-0.1-13.8,2.4-13.9,4.2&#10;&#9;&#9;L187.8,198.3z"/>
	<path class="st1_presentation-3-28" d="M186.9,214.9L186.9,214.9c-0.4,0-0.7-0.4-0.7-0.8c0,0,0,0,0,0l0,0l0.9-15.9c0-0.3,0.2-0.6,0.5-0.7&#10;&#9;&#9;c1.6-0.6,6-2.5,7-4.8c0.4-0.8,0.9-2.1,1.4-3.7c2.6-7.1,4-10.1,5.4-10.3c0.7-0.1,1.5,0.1,2,0.7c0.9,1,1,2.8,0.4,5.4&#10;&#9;&#9;s-1.2,6.8-1.6,8.9c2.6-0.4,9.6-0.5,28.4,0.4c1,0,2,0.4,2.6,1.1c0.3,0.4,0.4,0.9,0.3,1.4c-0.3,1.2-1.7,1.5-2.1,1.6&#10;&#9;&#9;c-1.6,0.3-3.2,0.6-4.8,0.9c1.8,0.1,3.8,0.5,4.6,2.2c0.1,0.2,0.1,0.5,0,0.7c-0.1,0.2-0.3,0.4-0.6,0.4c-1.4,0.2-2.8,0.4-4.3,0.5&#10;&#9;&#9;l3.7,0.3c0.9,0,1.7,0.5,2.1,1.3c0.2,0.4,0.1,0.9-0.1,1.3c-0.1,0.2-0.3,0.3-0.5,0.3c-2.1,0.3-4.1,0.6-6.2,0.8&#10;&#9;&#9;c1.2,0.3,2.4,0.7,3.6,1.1c1.3,0.6,1.5,1.3,1.5,1.9s-0.2,1.5-2.1,1.8c-2.9,0.4-5.8,0.4-8.7,0c-1.2-0.1-2.4-0.2-3.5-0.3&#10;&#9;&#9;c-4.8-0.2-10.1-0.4-15.4-0.8c-1.6-0.1-12.2,2.2-13.1,3.6l0,0l0,0C187.6,214.6,187.2,214.9,186.9,214.9z M188.5,198.8&#10;&#9;&#9;c-0.1,2.1-0.6,10-0.8,13.6c3.4-1.7,11.8-3.3,13.1-3.2c5.3,0.4,10.6,0.6,15.4,0.8c1.2,0.1,2.4,0.2,3.6,0.3c2.8,0.4,5.6,0.4,8.3,0&#10;&#9;&#9;c0.6-0.1,0.8-0.3,0.9-0.4s-0.1-0.2-0.6-0.4c-3.1-1.4-6.6-1.6-9.9-1.9c-0.4,0-0.7-0.4-0.7-0.8c0-0.4,0.3-0.7,0.7-0.8&#10;&#9;&#9;c3.9-0.3,7.8-0.7,11.7-1.2c-0.1,0-0.2,0-0.2-0.1l-12.3-1.1c-0.4,0-0.7-0.3-0.7-0.7c0-0.4,0.3-0.7,0.7-0.7c3.8-0.2,7.6-0.6,11.3-1.1&#10;&#9;&#9;c-1-0.4-2.2-0.6-3.3-0.6l-12.2-0.1c-0.4,0-0.7-0.3-0.7-0.7c0-0.4,0.3-0.7,0.7-0.8c5.9-0.3,11.8-1,17.5-2.2c0.9-0.2,1-0.4,1-0.5&#10;&#9;&#9;c0,0,0-0.1,0-0.1c-0.4-0.4-1-0.5-1.5-0.5c-12.7-0.6-27-1-28.7-0.4c-0.2,0.2-0.4,0.2-0.6,0.2c-0.4,0-0.7-0.4-0.7-0.8c0,0,0,0,0,0&#10;&#9;&#9;l0,0c0.2-1.2,1-6.8,1.7-10.1c0.7-2.9,0.1-3.8-0.1-4c-0.2-0.2-0.5-0.3-0.7-0.2c-0.9,0.5-3.1,6.5-4.2,9.4c-0.6,1.6-1.1,2.9-1.5,3.8&#10;&#9;&#9;C194.6,196.2,190,198.2,188.5,198.8z M202.1,194.8c0,0.1-0.1,0.3-0.2,0.4C202,195.1,202.1,194.9,202.1,194.8z"/>
	<path class="st3_presentation-3-28 targetColor" d="M116.2,131.1c0,0-31,9.9-36,22.6s6,113.7,6,113.7l88.7,0.2c0,0-6.9-104.4-11.9-118.8S131.5,126.5,116.2,131.1z&#10;&#9;&#9;" style="fill: rgb(0, 74, 173);"/>
	<path class="st2_presentation-3-28" d="M115.1,139.3l26.1,73.9c0,0,3.4-58.4,1.8-69.5S115.1,139.3,115.1,139.3z"/>
	<polygon class="st0_presentation-3-28" points="126.8,145.5 133.3,153.9 133.2,190.7 141.2,213.2 142.7,190.7 135.8,153.8 139.4,144.9 &#9;"/>
	<path class="st2_presentation-3-28" d="M143.8,69.5c2,1.4,4,3.2,6,4.3c3.6,2.1,7.7,3.3,11.9,3.5c1.1,0-0.3,9.5-0.5,10.4c-0.9,3.5-2.6,6.8-4.9,9.6&#10;&#9;&#9;c-2.1,2.5-4.4,4.8-6.7,7c-3,2.9-7.9,3.6-11.8,4.4c-3.4,0.7-7.1,1.9-10.5,2.2s-7.6,0.9-10.8-0.2c-4.2-1.5-6.9-6.6-8.6-10.4&#10;&#9;&#9;c-2.1-4.9-2.9-10.4-1.4-15.5c0.5-2,1.6-3.7,3-5.1c1.8-1.6,3.7-1.6,5.9-1.8c-0.4-2.8,0.4-4.3,2.7-6.3c5.3-4.7,15-5.7,21.7-4&#10;&#9;&#9;C141.3,67.9,142.6,68.6,143.8,69.5z"/>
	<path class="st1_presentation-3-28" d="M121,112.1c-1.6,0-3.3-0.2-4.9-0.7c-3.4-1.2-6.5-4.8-9-10.8c-1.7-4-3.3-9.9-1.4-16c0.6-2.1,1.7-4,3.2-5.5&#10;&#9;&#9;c1.8-1.6,3.7-1.8,5.6-2c-0.2-2.5,0.7-4.2,3-6.2c5.7-5,15.8-5.9,22.4-4.1c1.5,0.4,2.9,1.2,4.1,2.1l0,0c0.8,0.5,1.6,1.1,2.3,1.7&#10;&#9;&#9;c1.1,0.9,2.4,1.8,3.6,2.5c3.5,2.1,7.5,3.3,11.6,3.4c0.3,0,0.6,0.2,0.8,0.4c1.1,1.5-0.5,10.8-0.6,10.9c-1,3.6-2.7,7-5,9.9&#10;&#9;&#9;c-2.1,2.5-4.4,4.9-6.8,7.1c-2.9,2.8-7.3,3.6-11.2,4.4l-0.9,0.2c-1.3,0.2-2.6,0.6-3.9,0.9c-2.2,0.6-4.4,1-6.7,1.3l-0.8,0.1&#10;&#9;&#9;C124.7,112,122.8,112.1,121,112.1z M133.3,67.5c-5.3,0-11.1,1.4-14.7,4.6c-2.2,1.9-2.7,3.2-2.4,5.6c0,0.2,0,0.4-0.2,0.6&#10;&#9;&#9;c-0.1,0.2-0.3,0.3-0.5,0.3l-0.7,0.1c-1.9,0.2-3.4,0.3-4.8,1.6c-1.4,1.3-2.3,3-2.8,4.8c-1.7,5.7-0.2,11.3,1.3,15&#10;&#9;&#9;c2.4,5.6,5.1,8.9,8.1,10c2.8,1,6.6,0.6,9.7,0.2l0.8-0.1c2.2-0.3,4.4-0.7,6.5-1.3c1.3-0.3,2.7-0.7,4-0.9l0.9-0.2&#10;&#9;&#9;c3.7-0.7,7.9-1.5,10.5-4c2.4-2.2,4.6-4.5,6.7-7c2.2-2.7,3.9-5.9,4.8-9.3c0.3-1,1.2-7.8,0.9-9.4c-4.2-0.2-8.3-1.4-11.9-3.6&#10;&#9;&#9;c-1.3-0.8-2.6-1.7-3.8-2.7c-0.7-0.6-1.5-1.2-2.2-1.7c-1.1-0.8-2.3-1.5-3.7-1.9C137.6,67.7,135.5,67.5,133.3,67.5z"/>
	<path class="st2_presentation-3-28" d="M143.1,126.2l1.4,15.3c0,0-6.5,7.7-16.5,5.5s-11.5-9-11.5-9l-0.4-27.9c0,0,7.2-4,4.8-19.9c0,0,15.3,4.4,30,2.2&#10;&#9;&#9;c0,0,0.6,18-0.5,25.7S143.1,126.2,143.1,126.2z"/>
	<path class="st1_presentation-3-28" d="M131.6,148.2c-1.3,0-2.5-0.1-3.7-0.4c-10.3-2.3-12-9.2-12.1-9.5c0-0.1,0-0.1,0-0.2l-0.4-27.9&#10;&#9;&#9;c0-0.3,0.1-0.5,0.4-0.7c0.1,0,6.8-4.1,4.4-19.2c0-0.3,0.1-0.5,0.2-0.7c0.2-0.2,0.5-0.2,0.7-0.2c0.2,0,15.4,4.3,29.7,2.2&#10;&#9;&#9;c0.2,0,0.4,0,0.6,0.2c0.2,0.1,0.3,0.3,0.3,0.6c0,0.7,0.6,18.1-0.5,25.8c-0.9,6.5-5.4,8.2-7.2,8.6l1.4,14.6c0,0.2,0,0.4-0.2,0.6&#10;&#9;&#9;C144.8,142.3,139.7,148.2,131.6,148.2z M117.2,138c0.2,0.7,2.1,6.4,10.9,8.3c8.4,1.9,14.4-3.8,15.5-5.1l-1.4-15&#10;&#9;&#9;c0-0.2,0-0.4,0.2-0.6c0.1-0.2,0.3-0.2,0.5-0.3c0.2,0,5.6-0.5,6.6-7.4c0.9-6.6,0.6-21.1,0.5-24.7c-12.1,1.6-24.6-1.1-28.4-2&#10;&#9;&#9;c1.8,13.4-3.4,18.2-4.9,19.3L117.2,138z"/>
	<path class="st2_presentation-3-28" d="M121.8,109.6c-0.4-1.4-1.2-2.5-2.3-3.4c-1.1-0.7-2.2-1.3-3.5-1.7c-0.7-0.3-1.4-0.4-2.1-0.3&#10;&#9;&#9;c-0.5,0.1-1,0.3-1.4,0.5c-1.1,0.5-1.9,1.4-2.3,2.6c-0.2,0.9-0.3,1.9-0.1,2.8c0.1,1,0.4,2,0.8,3c1.8,3.9,6.4,5.7,10.3,3.9&#10;&#9;&#9;c0,0,0.1,0,0.1,0"/>
	<path class="st1_presentation-3-28" d="M118.1,118.5c-3.4,0-6.4-1.9-7.8-5c-0.4-1-0.7-2.1-0.9-3.2c-0.2-1.1-0.2-2.1,0.1-3.2c0.5-1.3,1.4-2.4,2.7-3&#10;&#9;&#9;c0.5-0.3,1.1-0.5,1.7-0.6c0.8-0.1,1.7,0.1,2.4,0.4c1.3,0.4,2.6,1,3.7,1.8c1.2,1,2.1,2.3,2.5,3.8c0.1,0.4-0.2,0.8-0.6,0.9&#10;&#9;&#9;c-0.4,0.1-0.8-0.1-0.9-0.5c-0.3-1.2-1-2.2-2-3c-1-0.7-2.1-1.2-3.3-1.6c-0.6-0.2-1.2-0.3-1.8-0.3c-0.4,0.1-0.8,0.2-1.1,0.4&#10;&#9;&#9;c-0.9,0.5-1.6,1.2-2,2.1c-0.2,0.8-0.2,1.7,0,2.5c0.1,1,0.4,1.9,0.8,2.8c1.6,3.6,5.8,5.1,9.4,3.5c0,0,0.1,0,0.1,0&#10;&#9;&#9;c0.4-0.2,0.8,0,1,0.4c0.2,0.4,0,0.8-0.3,1c0,0,0,0,0,0C120.7,118.2,119.4,118.5,118.1,118.5z"/>
	<path class="st1_presentation-3-28" d="M143.4,133.9c-3.7,0.5-7.4-0.6-10.2-3.1c-4.4-4.1-4.1-6.5-4.1-6.5s7.1,3.7,13.6,2.3L143.4,133.9z"/>
	<path class="st1_presentation-3-28" d="M141.8,134.7c-3.3,0-6.5-1.2-9-3.4c-4.6-4.2-4.4-6.9-4.3-7.2c0-0.2,0.2-0.5,0.4-0.6c0.2-0.1,0.5-0.1,0.7,0&#10;&#9;&#9;c0.1,0,6.9,3.6,13,2.2c0.2-0.1,0.4,0,0.6,0.1c0.2,0.1,0.3,0.3,0.3,0.5l0.8,7.4c0,0.4-0.2,0.7-0.6,0.8&#10;&#9;&#9;C143,134.7,142.4,134.7,141.8,134.7z M130.2,125.5c0.8,1.8,2.1,3.4,3.6,4.7c2.4,2.2,5.6,3.2,8.9,3l-0.6-5.8&#10;&#9;&#9;C137.3,128.1,132.5,126.5,130.2,125.5z"/>
	<path class="st2_presentation-3-28" d="M139.4,101.3c0,0,5.6,7.4,4.4,8.8s-4.6,0.7-4.6,0.7"/>
	<path class="st1_presentation-3-28" d="M141,111.8c-0.7,0-1.3-0.1-2-0.2c-0.4-0.1-0.7-0.4-0.6-0.9c0.1-0.4,0.4-0.7,0.9-0.6c0,0,0,0,0.1,0&#10;&#9;&#9;c1,0.2,3.3,0.3,3.9-0.4c0.2-0.7-1.8-4.4-4.5-7.9c-0.2-0.3-0.2-0.8,0.2-1c0.3-0.2,0.8-0.2,1,0.1c2.2,3,5.8,8.1,4.4,9.8&#10;&#9;&#9;C143.5,111.5,142.2,111.9,141,111.8z"/>
	<ellipse transform="matrix(0.9638 -0.2666 0.2666 0.9638 -22.3584 38.488)" class="st1_presentation-3-28" cx="130.6" cy="101.6" rx="1.3" ry="1.8"/>
	<ellipse transform="matrix(0.9638 -0.2666 0.2666 0.9638 -21.6982 42.049)" class="st1_presentation-3-28" cx="144" cy="101" rx="1.3" ry="1.8"/>
	<path class="st1_presentation-3-28" d="M138.9,115.8c-0.1,0.3-0.2,0.7-0.3,1c-0.3,1.1-0.1,2.4,0.5,3.3c0.7,1,2.1,1.2,3.1,0.5c0.5-0.5,0.8-1.2,0.8-1.9&#10;&#9;&#9;c0.1-0.8,0-1.7-0.3-2.4c-0.3-0.8-1.1-1.3-1.9-1.5c-0.9-0.1-1.7,0.4-1.9,1.2"/>
	<path class="st1_presentation-3-28" d="M141.1,121.8h-0.3c-0.9-0.1-1.7-0.5-2.2-1.2c-0.8-1.2-1.1-2.6-0.7-4c0.1-0.4,0.2-0.7,0.3-1.1&#10;&#9;&#9;c0.1-0.2,0.2-0.4,0.4-0.4c0.6-0.7,1.4-1.1,2.3-1c1.1,0.2,2,0.9,2.5,1.9c0.4,0.9,0.5,1.9,0.4,2.8c0,0.9-0.4,1.7-1.1,2.3&#10;&#9;&#9;C142.3,121.6,141.7,121.8,141.1,121.8z M139.5,116.7l-0.1,0.3c-0.3,0.9-0.1,1.9,0.4,2.7c0.3,0.4,0.7,0.6,1.2,0.6&#10;&#9;&#9;c0.3,0,0.6,0,0.8-0.2c0.3-0.4,0.5-0.9,0.6-1.4c0.1-0.7,0-1.4-0.2-2c-0.2-0.5-0.7-0.9-1.3-1c-0.5-0.1-1,0.2-1.1,0.7&#10;&#9;&#9;C139.6,116.5,139.5,116.6,139.5,116.7z"/>
	<path class="st2_presentation-3-28" d="M116,79.9c1,1.8,1.9,3.6,2.7,5.4"/>
	<path class="st1_presentation-3-28" d="M118.7,86.1c-0.3,0-0.6-0.2-0.7-0.5c-0.8-1.8-1.7-3.6-2.6-5.4c-0.2-0.4-0.1-0.8,0.3-1c0.4-0.2,0.8-0.1,1,0.3&#10;&#9;&#9;c1,1.8,1.9,3.6,2.7,5.5c0.2,0.4,0,0.8-0.4,1c0,0,0,0,0,0C118.9,86.1,118.8,86.1,118.7,86.1z"/>
	<polygon class="st1_presentation-3-28" points="180.8,194.6 187.4,193.2 193.3,215.7 183.2,216.5 &#9;"/>
	<path class="st1_presentation-3-28" d="M183.2,217.3c-0.4,0-0.7-0.3-0.7-0.7l-2.4-22c0-0.4,0.2-0.7,0.6-0.8l6.5-1.4c0.4-0.1,0.8,0.2,0.9,0.5l6,22.5&#10;&#9;&#9;c0.1,0.2,0,0.4-0.1,0.6c-0.1,0.2-0.3,0.3-0.6,0.3L183.2,217.3L183.2,217.3z M181.6,195.1l2.2,20.6l8.5-0.7l-5.6-21L181.6,195.1z"/>
	<path class="st3_presentation-3-28 targetColor" d="M84.9,172.9c0,0,7.4,68.1,16.6,67.9s87.5-23.3,87.5-23.3l-5.6-25.6l-66.9,4c0,0,0.9-39.4-6.4-41.3&#10;&#9;&#9;S88,155.2,84.9,172.9z" style="fill: rgb(0, 74, 173);"/>
	<path class="st1_presentation-3-28" d="M109.9,236.1c-3.5,0-6-0.5-7.1-1.6c-5.7-5.5-13.9-30.7-17.9-42.8c-0.9-2.6-1.6-4.9-1.9-5.5&#10;&#9;&#9;c-0.1-0.2-0.2-0.4-0.2-0.6c0-0.4,0.3-0.7,0.7-0.7c0.7-0.1,0.7-0.1,2.8,6.4c3.6,11.1,12.1,36.9,17.5,42.2&#10;&#9;&#9;c5.8,5.6,61.3-9.4,82.1-15.6c0.4-0.2,0.8,0,1,0.4c0.2,0.4,0,0.8-0.4,1c0,0-0.1,0-0.1,0C179.9,221.2,129.5,236.1,109.9,236.1z"/>
	<path class="st1_presentation-3-28" d="M119.5,198.6c-0.4,0-0.7-0.2-0.7-0.6l-9.5-43.1c-0.1-0.4,0.2-0.8,0.6-0.9s0.8,0.2,0.9,0.6l9.3,42.5l57-4.8&#10;&#9;&#9;c0.4,0,0.8,0.3,0.8,0.7c0,0.4-0.3,0.8-0.7,0.8L119.5,198.6L119.5,198.6z"/>
	<path class="st2_presentation-3-28" d="M132,417.4L132,417.4c-0.4,0-0.7-0.4-0.7-0.8l6.9-135c0-0.4,0.3-0.8,0.7-0.8s0.8,0.3,0.8,0.7&#10;&#9;&#9;c0,0.1,0,0.1,0,0.2l-6.8,135C132.8,417.1,132.4,417.4,132,417.4C132,417.4,132,417.4,132,417.4z"/>
	<path class="st2_presentation-3-28" d="M94.1,287.2c-0.4,0-0.7-0.3-0.7-0.8c0-0.3,0.2-0.5,0.4-0.7c5.4-2.9,8.8-8.5,9-14.6c0-0.4,0.3-0.7,0.8-0.7l0,0&#10;&#9;&#9;c0.4,0,0.7,0.3,0.7,0.8c0,0,0,0,0,0c-0.2,6.7-3.9,12.7-9.8,15.9C94.3,287.1,94.2,287.2,94.1,287.2z"/>
	<path class="st2_presentation-3-28" d="M238.1,121.6c2.6,2.4,3.8,5.9,3.2,9.4"/>
	<path class="st1_presentation-3-28" d="M241.3,131.8h-0.1c-0.4-0.1-0.7-0.5-0.6-0.9c0,0,0,0,0,0c0.5-3.2-0.6-6.5-3-8.7c-0.3-0.3-0.3-0.8,0-1.1&#10;&#9;&#9;c0.3-0.2,0.7-0.3,1-0.1c2.8,2.6,4.1,6.4,3.5,10.1C241.9,131.5,241.6,131.8,241.3,131.8z"/>
</g>
<g id="plant_presentation-3-28">
	<path class="st2_presentation-3-28" d="M447,362.2c3.5-3.2,7.6-5.8,11.9-7.8c0.4,12.7-4.8,24.4-9.6,32.4h-15.5"/>
	<path class="st1_presentation-3-28" d="M449.3,387.6h-15.5c-0.4,0-0.8-0.3-0.8-0.8s0.3-0.8,0.8-0.8l0,0h15.1c4.3-7.4,9.3-18.4,9.3-30.5&#10;&#9;&#9;c-3.9,1.9-7.4,4.3-10.7,7.2c-0.3,0.3-0.8,0.2-1.1-0.1s-0.2-0.8,0.1-1.1l0,0c3.6-3.2,7.7-5.9,12.1-7.9c0.4-0.1,0.8,0,1,0.4&#10;&#9;&#9;c0,0.1,0,0.2,0,0.2c0.4,13.1-5.1,25.1-9.7,32.8C449.8,387.4,449.6,387.6,449.3,387.6z"/>
	<path class="st2_presentation-3-28" d="M424.8,365.6c3.8-19.9,19.4-32.4,19.4-32.4c2.9,9.4,3.9,19.2,2.8,29c-0.8,8.4-2.6,16.7-5.4,24.7H425"/>
	<path class="st1_presentation-3-28" d="M441.6,387.6H425c-0.4,0-0.8-0.3-0.8-0.8s0.3-0.8,0.8-0.8h16.1c2.6-7.8,4.4-15.8,5.2-24&#10;&#9;&#9;c1-9.3,0.1-18.6-2.5-27.6c-3.3,2.9-15.1,14.5-18.3,31.2c0,0.4-0.4,0.7-0.8,0.7c-0.4,0-0.7-0.4-0.7-0.8c0,0,0-0.1,0-0.1&#10;&#9;&#9;c3.8-19.9,19.5-32.7,19.7-32.8c0.2-0.2,0.4-0.2,0.7-0.1c0.2,0.1,0.4,0.3,0.5,0.5c2.9,9.5,3.9,19.4,2.9,29.3&#10;&#9;&#9;c-0.8,8.5-2.6,16.8-5.4,24.8C442.3,387.4,442,387.6,441.6,387.6z"/>
	<path class="st2_presentation-3-28" d="M416.5,386.8h14.8c0.1-4.4-0.9-11-5.6-19.6c-0.3-0.6-0.6-1.1-1-1.7c-8.6-14.5-16.4-14.3-16.4-14.3&#10;&#9;&#9;C405.1,366.5,412.1,380.1,416.5,386.8z"/>
	<path class="st1_presentation-3-28" d="M431.3,387.6h-14.8c-0.3,0-0.5-0.1-0.6-0.3c-4.5-6.8-11.6-20.6-8.3-36.1c0.1-0.3,0.4-0.6,0.7-0.6&#10;&#9;&#9;c0.4,0,8.4,0,17,14.7l1,1.7c5,9,5.8,15.8,5.7,20C432,387.3,431.7,387.6,431.3,387.6z M416.9,386.1h13.6c0-4-1-10.3-5.5-18.5&#10;&#9;&#9;l-0.9-1.6c-6.9-11.6-13.2-13.6-15.1-13.9C406.1,366.5,412.6,379.4,416.9,386.1z"/>
	<polygon class="st1_presentation-3-28" points="419.2,410.2 448.2,410.2 452.9,386.8 414.6,386.8 &#9;"/>
</g>
</svg>