<svg id="_0286_startup" xmlns="http://www.w3.org/2000/svg" viewBox="0 0 500 500" data-imageid="startup-46" imageName="Startup" class="illustrations_image" style="width: 153px;"><defs><style>.cls-1_startup-46,.cls-2_startup-46,.cls-3_startup-46,.cls-4_startup-46,.cls-5_startup-46{fill:#00bf63;}.cls-6_startup-46{fill:#f4a28c;}.cls-7_startup-46,.cls-8_startup-46{fill:#a5a5a5;}.cls-2_startup-46{opacity:.62;}.cls-3_startup-46,.cls-8_startup-46{opacity:.55;}.cls-9_startup-46{fill:#e6e6e6;}.cls-10_startup-46{fill:none;opacity:.03;}.cls-11_startup-46{fill:#ce8172;opacity:.31;}.cls-12_startup-46{opacity:.58;}.cls-12_startup-46,.cls-13_startup-46,.cls-14_startup-46{fill:#68e1fd;}.cls-4_startup-46{opacity:.2;}.cls-5_startup-46{opacity:.46;}.cls-15_startup-46{opacity:.05;}.cls-15_startup-46,.cls-16_startup-46,.cls-17_startup-46{fill:#000001;}.cls-18_startup-46{fill:#24285b;}.cls-16_startup-46{opacity:.08;}.cls-13_startup-46{opacity:.73;}.cls-19_startup-46{fill:#00bf63;}</style></defs><g id="screen_startup-46"><rect class="cls-9_startup-46" x="75" y="80.08" width="327.71" height="300.49" transform="translate(477.7 460.66) rotate(-180)"/><path class="cls-15_startup-46" d="m394.06,206.34s-6.74-1.92-9.15,8.37c-2.41,10.29-1.27,12.53,3.76,15.11,5.02,2.58,2.44,19.29-6.69,18.94-9.12-.34-16.53-7.74-21.01,0-4.47,7.74-8.98,64.48-27.65,52.21-18.67-12.27-22.86-59.29-22.86-59.29l-33.35-.48v36.83s25.94-.52,25.94-.52c0,0,3.34,45.24,39.84,55.36,7.65,2.12,12.09,10.06,9.63,17.6l-9.81,30.1h56.42s.06-39.69.06-39.69c0,0,2.63-123.24-5.14-134.55Z"/><circle class="cls-1_startup-46" cx="308.6" cy="247.58" r="3.19"/><path class="cls-15_startup-46" d="m118.12,257.53l-21.3.57-7.02,122.47h16.61s13.89,0,13.89,0c1.71-5.83,6.12-36.13,22.72-53.68s95.68-60.58,71.23-90.8c-11.91-14.73-44.47,40.02-44.47,40.02l-31.45,3.73,2.16-1.13-22.37-21.18Z"/><path class="cls-8_startup-46" d="m207.21,264.83l-6.97,8.74c-7.41,9.29-10.9,21.1-9.74,32.93l1.33,13.58,20.4-18.52-5.02-36.72Z"/><path class="cls-8_startup-46" d="m256.12,264.83l6.97,8.74c7.41,9.29,10.9,21.1,9.74,32.93l-1.33,13.58-20.4-18.52,5.02-36.72Z"/><path class="cls-3_startup-46" d="m222.36,304.46s6.35,37.45-4.1,40.52c-10.44,3.07-15.36-13.72-29.08-3.69-13.72,10.03,3.89,21.09-20.48,18.02s-33.79,8.94-28.05,21.26h179.79s9.01-11.43-1.02-19.21c-5.18-4.02-11.02-4.16-15.46-3.36-3.16.57-6.04-1.88-5.95-5.08.11-3.68-.53-7.86-3.37-10.41-3.46-3.1-10.62.13-15.98,3.37-6.15,3.71-13.31,5.44-20.44,4.58-6.24-.75-12.62-2.81-14.36-7.95-3.69-10.85-1.43-38.75-1.43-38.75l-20.07.69Z"/><path class="cls-7_startup-46" d="m231.69,187.3s-51.48,28.25-19.46,114.25h38.92c32.02-86-19.46-114.25-19.46-114.25Z"/><polygon class="cls-1_startup-46" points="251.15 301.56 249.43 308.15 214.11 308.15 212.23 300.77 251.15 301.56"/><circle class="cls-9_startup-46" cx="232.06" cy="237.76" r="13.22"/><circle class="cls-19_startup-46" cx="98.42" cy="110.69" r="8.27"/><circle class="cls-14_startup-46 targetColor" cx="121.71" cy="110.69" r="8.27" style="fill: rgb(0, 74, 173);"/><circle class="cls-18_startup-46" cx="143.99" cy="110.69" r="8.27"/><rect class="cls-15_startup-46" x="178.22" y="139.62" width="115.84" height="21.68"/></g><g id="girl_startup-46"><g class="cls-10_startup-46"><ellipse class="cls-17_startup-46" cx="406.79" cy="424.9" rx="76.44" ry="15.64"/></g><path class="cls-6_startup-46" d="m399.7,227.48s-22.73-3.03-27.29,15.96c-4.56,18.99-5.22,45.3-23.47,50.57-18.26,5.26-28.36-31.25-28.36-31.25,0,0-4.24-10.25-8.8-11.64s-7.82,8.71,0,14.9c0,0,6.59,46.62,41.6,44.99,35.01-1.63,46.33-49.7,46.33-83.52Z"/><path class="cls-16_startup-46" d="m399.7,227.48s-22.73-3.03-27.29,15.96c-4.56,18.99-5.22,45.3-23.47,50.57-18.26,5.26-28.36-31.25-28.36-31.25,0,0-4.24-10.25-8.8-11.64s-7.82,8.71,0,14.9c0,0,6.59,46.62,41.6,44.99,35.01-1.63,46.33-49.7,46.33-83.52Z"/><path class="cls-14_startup-46 targetColor" d="m399.7,227.48s-24.4-4.82-27.82,14.91c-3.42,19.72-9.45,32.93-9.45,32.93l18.64,6.03,18.64-53.87Z" style="fill: rgb(0, 74, 173);"/><path class="cls-5_startup-46" d="m399.7,227.48s-24.4-4.82-27.82,14.91c-3.42,19.72-9.45,32.93-9.45,32.93l18.64,6.03,18.64-53.87Z"/><path class="cls-6_startup-46" d="m400.86,195.43s-3.13,6.63-3.66,11.61c-.22,2.02,1.27,3.86,3.3,4.05,2.51.23,5.98-.18,8.09-3.53l4.28-5.25s2.56-3.38-.28-7.6c-2.85-4.22-10.01-3.42-11.72.72Z"/><polygon class="cls-6_startup-46" points="411.25 203.51 412.97 227.48 399.7 227.48 403.67 210.48 411.25 203.51"/><path class="cls-6_startup-46" d="m399.11,199.71l-2.9,1.94c-.72.48-.69,1.54.05,1.98l2.45,1.47.4-5.39Z"/><path class="cls-11_startup-46" d="m403.56,210.96s2.81-.48,4.32-2.07c0,0,.86,5.19-5.46,6.94l1.14-4.87Z"/><path class="cls-6_startup-46" d="m406.92,203.22s1.03-2.63,2.94-1.69c1.91.94.45,4.75-2.39,4.1l-.56-2.41Z"/><polygon class="cls-6_startup-46" points="375.72 363.95 364.49 414.97 371.02 414.97 392.87 363.95 375.72 363.95"/><polygon class="cls-6_startup-46" points="412.25 357.75 424.22 414.97 430.79 414.97 429.8 357.35 412.25 357.75"/><path class="cls-14_startup-46 targetColor" d="m364.49,414.97s-3.63,4.6-8.26,4.37c-4.64-.23-5.32,6.33,2.14,5.65,2.85-.26,5.13-.71,6.87-1.18,2.07-.55,4.22-.33,6.29.22.65.17,1.38.02,2.13-.85,2.12-2.49-3.08-8.21-3.08-8.21h-6.09Z" style="fill: rgb(0, 74, 173);"/><path class="cls-14_startup-46 targetColor" d="m430.31,414.97s3.63,4.6,8.26,4.37c4.64-.23,5.32,6.33-2.14,5.65-2.85-.26-5.13-.71-6.87-1.18-2.07-.55-4.22-.33-6.29.22-.65.17-1.38.02-2.13-.85-2.12-2.49,3.08-8.21,3.08-8.21h6.09Z" style="fill: rgb(0, 74, 173);"/><path class="cls-14_startup-46 targetColor" d="m399.7,227.48h13.27s.91-.06,2.47,0c28.95.93,45.77,33.09,30.4,57.64-8.55,13.66-18.76,32.06-19.44,43.06l-51.61-2.61s3.91-33.47-5.65-52.6c0,0-17.58-30.12,30.55-45.49Z" style="fill: rgb(0, 74, 173);"/><path class="cls-16_startup-46" d="m422.75,245.01s-6.42,13.27-7.94,37.13c-1.52,23.86-37.74-4.32-37.74-4.32l-1.66,39.41,52.69,2.78,4.38-15.97s13.82-24.72-9.73-59.02Z"/><rect class="cls-19_startup-46" x="371.21" y="257.56" width="34.63" height="53.51" transform="translate(807.51 521.48) rotate(173.32)"/><rect class="cls-18_startup-46" x="377.51" y="254.35" width="16.12" height="7.84" transform="translate(798.59 469.9) rotate(173.32)"/><polygon class="cls-18_startup-46" points="375.41 317.23 428.11 320.01 442.18 373.38 366.02 370.67 375.41 317.23"/><polygon class="cls-16_startup-46" points="370.34 277.88 406.91 292.47 408.84 308.88 374.44 312.91 370.34 277.88"/><path class="cls-6_startup-46" d="m423.19,247.56c-.48-10.76,13.05-15.88,19.9-7.58,5.9,7.16,11.32,17.68,11.12,32.06-.43,31.23-4.64,65.04-72.02,28.09l3.63-9.9s29.9,14.38,42.39,9.71c9.18-3.43-4.08-30.94-5.03-52.39Z"/><path class="cls-6_startup-46" d="m385.82,290.24s-11.24-5.34-16.02,0c-4.78,5.34,2.83,10.12,12.39,9.9l3.63-9.9Z"/><path class="cls-18_startup-46" d="m399.7,191.91l-2.3,5.76,9.52,3.65s.54,6.41-2.83,7.57c0,0,2.08.1,4.09-1.98.86-.9,2.25-1.02,3.19-.2l.12.11s4.46-4.15,5.54-9.8c1.09-5.65-5.22-6.52-5.22-6.52,0,0-8.37-5.87-12.12,1.41Z"/><path class="cls-18_startup-46" d="m411.82,190.5s.43-5.43,10.22-4.56c9.78.87,0,14.08,8.04,26.38,0,0-14.78-3.13-15.21-16.38l-3.04-5.43Z"/><path class="cls-19_startup-46" d="m411.2,190.11s1.96-1.35,4.73.4c2.77,1.75,3.99,8.15-.37,10.35,0,0,3.62-8.67-4.36-10.75Z"/><path class="cls-14_startup-46 targetColor" d="m427.46,281.35h28.69s3.15-41.88-20.6-47.24c-23.74-5.36-8.09,47.24-8.09,47.24Z" style="fill: rgb(0, 74, 173);"/><path class="cls-5_startup-46" d="m427.46,281.35h28.69s3.15-41.88-20.6-47.24c-23.74-5.36-8.09,47.24-8.09,47.24Z"/><rect class="cls-18_startup-46" x="290.37" y="223.81" width="43.05" height="35.92" transform="translate(623.8 483.53) rotate(-180)"/><polygon class="cls-2_startup-46" points="328.93 254.16 318.68 235.86 311.5 249.41 302.78 237.91 294.06 254.16 328.93 254.16"/></g><g id="boy_startup-46"><g class="cls-10_startup-46"><ellipse class="cls-17_startup-46" cx="78.37" cy="425.14" rx="55.51" ry="15.39"/></g><polygon class="cls-6_startup-46" points="81.23 215.27 84.95 226.42 76.13 232.03 72.95 212.7 81.23 215.27"/><path class="cls-6_startup-46" d="m69.92,201.92c1.9-4.63,8.06-5.58,11.49-1.93,3.76,4.01,8.28,10.39,3.16,13.86-7.84,5.31-15.04-4.61-15.04-4.61,0,0-1.05-3.8.39-7.32Z"/><path class="cls-6_startup-46" d="m75.65,208.76s-2.01-1.68-2.92.71c-.91,2.39,2.64,3.54,3.7,2.33,1.06-1.2-.78-3.04-.78-3.04Z"/><path class="cls-14_startup-46 targetColor" d="m57.92,237.66s-36.3,21.98-41.07,73.57c-.82,8.87,4.9,17.03,13.56,19.12l42.55,10.26-15.03-102.95Z" style="fill: rgb(0, 74, 173);"/><path class="cls-4_startup-46" d="m57.92,237.66s-36.3,21.98-41.07,73.57c-.82,8.87,4.9,17.03,13.56,19.12l42.55,10.26-15.03-102.95Z"/><rect class="cls-19_startup-46" x="22.98" y="311.23" width="61.38" height="40.14" transform="translate(-133.45 52.69) rotate(-24.68)"/><path class="cls-18_startup-46" d="m76.76,205.87s4.17,11.93-3.1,11.18c-7.27-.75-3.29-5.87-6.89-11.18-3.6-5.31-1.71-8.89,3.79-13.55,2.52-2.14,4.22-3.13,5.23-4.26,1.92-2.14,5.45-1.74,6.54.93,1.88,4.58,1.89,10.71-5.58,16.89Z"/><path class="cls-14_startup-46 targetColor" d="m49.53,248.45c3.45-7.75,10.19-13.55,18.31-15.99,15.52-4.66,44.99-14.45,53.7.07,11.93,19.88-6.43,97.9-6.43,97.9l-52.16,4.05s-28.69-51.75-13.43-86.03Z" style="fill: rgb(0, 74, 173);"/><polygon class="cls-18_startup-46" points="115.11 330.43 108.25 420.1 97.41 420.1 87.72 350.44 63.75 334.48 115.11 330.43"/><polygon class="cls-18_startup-46" points="63.75 334.48 48.78 420.1 60.41 420.1 85.52 348.97 63.75 334.48"/><path class="cls-16_startup-46" d="m72.35,231.1s-24.4,78.58,46.05,83.79l-3.29,15.54-52.16,4.05s-18.38-28.86-17.6-69.39c0,0,.44-20.04,14.55-28.9,0,0,5.39-3.97,12.44-5.09Z"/><path class="cls-14_startup-46 targetColor" d="m50.89,420.1l-7.21,5.32c-1.23.91-.59,2.86.94,2.86h12.09c.88,0,1.59-.71,1.59-1.59v-6.59h-7.4Z" style="fill: rgb(0, 74, 173);"/><path class="cls-14_startup-46 targetColor" d="m107.95,420.1l6.79,5.31c1.2.94.54,2.87-.99,2.87h-8.61c-2.54,0-4.6-2.06-4.6-4.6v-3.58h7.4Z" style="fill: rgb(0, 74, 173);"/><path class="cls-14_startup-46 targetColor" d="m214.63,224.46l-7.82-2.29-34.3,29.81h0c-5.14,4.47-12.28,5.85-18.71,3.6-7.15-2.5-16.1-7.59-22.48-17.93-12.34-20-33.28-12.76-33.28-12.76,0,0-15.78,15.55,15.49,42.23,18.67,15.93,37.78,16.93,50.16,15.14,1.51-.22,3.03-.25,4.56-.3,1.36-.04,2.78-.34,4.24-.96,1.6-.67,3.22-1.48,4.86-2.41h0s0,0,0,0c12.68-7.24,26.36-22.76,37.29-54.14Z" style="fill: rgb(0, 74, 173);"/><path class="cls-4_startup-46" d="m214.63,224.46l-7.82-2.29-34.3,29.81h0c-5.14,4.47-12.28,5.85-18.71,3.6-7.15-2.5-16.1-7.59-22.48-17.93-12.34-20-33.28-12.76-33.28-12.76,0,0-15.78,15.55,15.49,42.23,18.67,15.93,37.78,16.93,50.16,15.14,1.51-.22,3.03-.25,4.56-.3,1.36-.04,2.78-.34,4.24-.96,1.6-.67,3.22-1.48,4.86-2.41h0s0,0,0,0c12.68-7.24,26.36-22.76,37.29-54.14Z"/><path class="cls-6_startup-46" d="m206.8,222.17s4.35-12.44,7.82-13.41,0,6.71,0,6.71c0,0,9.49,4.66,0,9l-7.82-2.29Z"/></g><g id="chart_startup-46"><rect class="cls-18_startup-46" x="318.45" y="59.46" width="111.43" height="77.27"/><rect class="cls-1_startup-46" x="344.8" y="104.04" width="12.54" height="16.04"/><rect class="cls-1_startup-46" x="368.23" y="91.7" width="12.54" height="28.37"/><rect class="cls-1_startup-46" x="391.23" y="79.12" width="12.54" height="40.96"/></g><g id="plant_startup-46"><path class="cls-12_startup-46 targetColor" d="m468.28,411.38s9.98-2.68,12.19-11.95c0,0-15.44-3.19-15.94,12.76l3.75-.8Z" style="fill: rgb(0, 74, 173);"/><path class="cls-13_startup-46 targetColor" d="m467.07,410.39s7.01-10.98.92-21.31c0,0-11.78,7.41-6.62,21.31h5.69Z" style="fill: rgb(0, 74, 173);"/><path class="cls-14_startup-46 targetColor" d="m465.27,410.39s-3.63-11.65-14.75-13.9c0,0-2.12,7.54,7.15,13.9h7.6Z" style="fill: rgb(0, 74, 173);"/><polygon class="cls-18_startup-46" points="472.5 410.15 470.42 423.97 457.69 423.97 455.88 410.15 472.5 410.15"/></g></svg>